<?xml version="1.0" encoding="UTF-8"?>
<svg id="_Слой_2" data-name="Слой 2" xmlns="http://www.w3.org/2000/svg" viewBox="0 0 40 43.76">
  <defs>
    <style>
      .cls-1 {
        fill: #e63d11;
      }
    </style>
  </defs>
  <g id="Layer_1" data-name="Layer 1">
    <path class="cls-1" d="M35.88,25.25v-6.86c2.35-.46,4.12-2.53,4.12-5.02,0-2.82-2.29-5.11-5.11-5.11-1.4,0-2.68.57-3.6,1.48l-6.45-4.02c.02-.2.04-.4.04-.61,0-2.82-2.29-5.11-5.11-5.11s-5.11,2.29-5.11,5.11,2.29,5.11,5.11,5.11c1.9,0,3.56-1.04,4.44-2.57l5.97,3.72c-.26.61-.4,1.29-.4,2,0,2.49,1.77,4.56,4.12,5.02v6.86c-2.35.46-4.12,2.53-4.12,5.02,0,2.82,2.29,5.11,5.11,5.11s5.11-2.29,5.11-5.11c0-2.49-1.77-4.56-4.12-5.02"/>
    <path class="cls-1" d="M24.88,21.82c0-2.82-2.29-5.11-5.11-5.11s-5.11,2.29-5.11,5.11c0,2.49,1.77,4.55,4.12,5.02v6.79c-1.26.25-2.35.96-3.1,1.95l-5.75-3.58c.19-.54.3-1.12.3-1.72,0-2.49-1.77-4.56-4.12-5.02v-6.86c2.35-.46,4.12-2.53,4.12-5.02,0-2.82-2.29-5.11-5.11-5.11S0,10.55,0,13.37c0,2.49,1.77,4.56,4.12,5.02v6.86c-2.35.46-4.12,2.53-4.12,5.02,0,2.82,2.29,5.11,5.11,5.11,1.51,0,2.87-.65,3.8-1.69l5.9,3.67c-.11.41-.16.84-.16,1.28,0,2.82,2.29,5.11,5.11,5.11s5.11-2.29,5.11-5.11c0-2.49-1.77-4.56-4.12-5.02v-6.79c2.35-.46,4.12-2.53,4.12-5.02"/>
  </g>
</svg>