<svg width="30" height="30" viewBox="0 0 30 30" fill="none" xmlns="http://www.w3.org/2000/svg">
<path d="M3.39752 6.84863C1.99662 6.84863 0.929879 8.22617 1.31622 9.58057C2.32214 13.111 3.81332 16.5682 6.03912 19.2864C8.26493 22.0046 11.2753 23.9748 15.1248 24.3657C16.4062 24.4957 17.5113 23.4512 17.5113 22.1843V19.655C17.5113 19.4972 17.6191 19.3851 17.742 19.3816C17.7648 19.381 17.783 19.3804 17.7945 19.3804C18.2366 19.3804 19.145 19.9342 19.9429 20.7952C20.7409 21.6561 21.4466 22.7219 21.7862 23.3123V23.3135C22.1704 23.9803 22.8864 24.3828 23.6478 24.3828H26.6934C28.2103 24.3839 29.2253 22.6704 28.483 21.3433C27.3175 19.2587 24.9924 17.197 23.8296 16.1687C25.96 13.8292 27.3725 11.2797 27.9984 9.58911C28.4707 8.31179 27.4968 6.87427 26.1234 6.87427H23.9493C23.0042 6.87427 22.1231 7.33473 21.763 8.07178C20.071 11.539 18.5628 12.8125 17.5003 13.7297V9.02515C17.5003 7.85144 16.5264 6.88378 15.3568 6.88159L11.5494 6.87549C10.3369 6.87399 9.58515 8.37142 10.3116 9.34253L11.0464 10.3264L11.0477 10.3289C11.1736 10.4954 11.2405 10.695 11.2405 10.9001V10.9014L11.2552 14.8247C9.74085 13.2276 8.09562 9.84459 7.59918 8.33545V8.33423C7.30925 7.45267 6.47515 6.85744 5.5545 6.85474H5.55328L3.39874 6.84863H3.39752ZM3.39752 8.72363L5.54962 8.72974C5.6819 8.73005 5.77919 8.80143 5.81818 8.92017C6.43461 10.7947 8.05421 14.3663 10.1077 16.3665C10.641 16.886 11.4237 16.9913 12.0303 16.7449C12.637 16.4985 13.1314 15.8599 13.1314 15.1104V15.1091L13.1155 10.9001C13.1155 10.2872 12.9149 9.69102 12.5467 9.20215L12.5455 9.19971L12.2098 8.75171L15.3531 8.75659C15.5172 8.75691 15.6253 8.86385 15.6253 9.02515V13.7773C15.6253 15.2991 17.5418 16.1734 18.6942 15.1787H18.6954C19.7517 14.2663 21.6208 12.6378 23.4476 8.89453C23.4899 8.80783 23.4531 8.74927 23.9493 8.74927H26.1234C26.2499 8.74927 26.287 8.80955 26.2393 8.93848C25.7075 10.3749 24.3508 12.8797 22.3392 15.0469C21.7191 15.7149 21.7444 16.8187 22.4454 17.4395C23.5442 18.4114 25.9424 20.6415 26.846 22.2576C26.9287 22.4054 26.8665 22.5079 26.6946 22.5078H23.6478C23.5429 22.5078 23.4567 22.4566 23.4109 22.3772C23.0049 21.6713 22.2603 20.5367 21.3187 19.5208C20.3771 18.5048 19.2562 17.5054 17.7945 17.5054C17.7531 17.5054 17.7192 17.5059 17.6932 17.5066H17.6907H17.6895C16.5262 17.5394 15.6363 18.5266 15.6363 19.655V22.1843C15.6363 22.3787 15.4864 22.518 15.314 22.5005C11.9867 22.1626 9.47883 20.5283 7.48932 18.0986C5.49981 15.669 4.07891 12.4349 3.1192 9.06665C3.06555 8.87855 3.18093 8.72363 3.39752 8.72363Z" fill="black"/>
</svg>
