<svg width="88" height="63" viewBox="0 0 88 63" fill="none" xmlns="http://www.w3.org/2000/svg">
<path fill-rule="evenodd" clip-rule="evenodd" d="M15.625 1.5625C15.625 1.1481 15.4604 0.750672 15.1674 0.457646C14.8743 0.16462 14.4769 0 14.0625 0H1.5625C1.1481 0 0.750672 0.16462 0.457646 0.457646C0.16462 0.750672 1.15074e-08 1.1481 1.15074e-08 1.5625C1.15074e-08 1.5625 -0.00468716 16.6938 5.96875 31.8234C12.0313 47.1828 24.1875 62.5031 48.4375 62.5031C48.8519 62.5031 49.2493 62.3385 49.5424 62.0455C49.8354 61.7525 50 61.355 50 60.9406V39.1156C61.7266 39.8891 71.1063 49.2984 71.8313 61.0359C71.8559 61.4328 72.0309 61.8053 72.3206 62.0776C72.6104 62.3499 72.993 62.5015 73.3906 62.5016H85.9375C86.3519 62.5016 86.7493 62.3369 87.0424 62.0439C87.3354 61.7509 87.5 61.3535 87.5 60.9391C87.5 48.6109 81.2812 37.725 71.8125 31.2516C81.2812 24.775 87.5 13.8875 87.5 1.5625C87.5 1.1481 87.3354 0.750672 87.0424 0.457646C86.7493 0.16462 86.3519 0 85.9375 0H73.3906C72.9933 5.37503e-06 72.6108 0.151401 72.3212 0.423382C72.0315 0.695363 71.8563 1.0675 71.8313 1.46406C71.1063 13.2031 61.7266 22.6125 50 23.3875V1.5625C50 1.1481 49.8354 0.750672 49.5424 0.457646C49.2493 0.16462 48.8519 0 48.4375 0H35.9375C35.5231 0 35.1257 0.16462 34.8326 0.457646C34.5396 0.750672 34.375 1.1481 34.375 1.5625V40.1563C31.8547 39.2875 27.1063 36.9766 23.0406 31.1672C18.9688 25.3453 15.625 16.1156 15.625 1.5625ZM12.5125 3.125C12.8125 21.5 18.4 31.5469 23.8953 37.0438C29.7922 42.9406 35.7172 43.7359 35.7172 43.7359C35.9389 43.7678 36.1649 43.7515 36.3798 43.6883C36.5947 43.625 36.7935 43.5162 36.9626 43.3693C37.1318 43.2224 37.2673 43.0409 37.36 42.8369C37.4527 42.633 37.5005 42.4115 37.5 42.1875V3.125H46.875V25C46.875 25.4144 47.0396 25.8118 47.3326 26.1049C47.6257 26.3979 48.0231 26.5625 48.4375 26.5625C62.0422 26.5625 73.2703 16.3125 74.8187 3.125H84.3406C83.8031 14.5469 77.4125 24.4531 68.1047 29.9C67.8686 30.0373 67.6727 30.2342 67.5365 30.471C67.4004 30.7078 67.3287 30.9761 67.3287 31.2492C67.3287 31.5223 67.4004 31.7907 67.5365 32.0274C67.6727 32.2642 67.8686 32.4611 68.1047 32.5984C77.4125 38.0469 83.8031 47.9531 84.3391 59.375H74.8187C73.2703 46.1875 62.0422 35.9375 48.4375 35.9375C48.0231 35.9375 47.6257 36.1021 47.3326 36.3951C47.0396 36.6882 46.875 37.0856 46.875 37.5V59.3516C25.2891 58.7063 14.3984 44.6719 8.875 30.675C4.25156 18.9687 3.34531 7.25781 3.16719 3.125H12.5125Z" fill="black"/>
</svg>
